<svg width="515" height="547" viewBox="0 0 515 547" fill="none" xmlns="http://www.w3.org/2000/svg">
<path d="M67.6418 103.45C67.0194 103.077 66.5666 102.468 66.4121 101.785C66.308 101.441 66.2909 101.093 66.3484 100.762C66.3976 100.398 66.5091 100.071 66.6952 99.7607C67.0673 99.14 67.6761 98.6894 68.3599 98.5369C69.1887 98.3308 70.1384 98.5346 70.8068 99.1605C70.9396 99.2683 71.0601 99.3967 71.1681 99.5459C71.2761 99.6951 71.351 99.8525 71.4258 100.01C71.5131 100.147 71.5548 100.312 71.6172 100.49C71.8048 101.165 71.6733 101.902 71.3011 102.523C71.1274 102.812 70.8998 103.098 70.614 103.292C70.3159 103.507 69.9803 103.643 69.6487 103.726C69.4498 103.775 69.2965 103.796 69.1223 103.804C68.9606 103.791 68.7865 103.799 68.6041 103.774C68.4216 103.749 68.264 103.683 68.0815 103.658C67.9447 103.604 67.787 103.538 67.6418 103.45Z" fill="black"/>
<path d="M75.455 91.4565C74.2887 90.532 74.0996 88.8716 75.0016 87.6968C75.9244 86.5343 77.5989 86.3291 78.7653 87.2536C79.9316 88.178 80.1414 89.8508 79.2187 91.0132C78.3704 92.0515 76.8742 92.3356 75.7331 91.6513C75.6501 91.6016 75.538 91.5062 75.455 91.4565ZM269.073 204.642C269.664 203.28 271.239 202.677 272.604 203.271C273.948 203.852 274.555 205.426 273.965 206.787C273.374 208.149 271.799 208.751 270.455 208.17C270.331 208.096 270.235 208.067 270.152 208.017C268.999 207.353 268.512 205.908 269.073 204.642ZM84.7043 80.5486C83.6787 79.4835 83.6845 77.8275 84.7194 76.7604C85.7833 75.7389 87.4416 75.7489 88.5127 76.7851C89.5507 77.8295 89.5533 79.5186 88.4977 80.5733C87.6077 81.4459 86.2647 81.5687 85.2273 80.9466C85.0489 80.8678 84.887 80.7144 84.7043 80.5486ZM273.879 191.547C274.3 190.14 275.783 189.314 277.202 189.77C278.624 190.174 279.443 191.677 279.002 193.072C278.589 194.512 277.098 195.306 275.667 194.869C275.456 194.799 275.256 194.708 275.07 194.596C274.032 193.974 273.508 192.731 273.879 191.547ZM95.2988 70.9256C94.3684 69.7489 94.6146 68.0682 95.7782 67.1627C96.9501 66.2904 98.6461 66.5199 99.535 67.6718C100.453 68.8692 100.207 70.5498 99.0348 71.4222C98.1487 72.1002 96.9423 72.1362 96.0294 71.5888C95.7597 71.427 95.5065 71.1908 95.2988 70.9256ZM276.968 177.93C277.198 176.464 278.552 175.476 280.041 175.722C281.476 175.964 282.477 177.352 282.239 178.784C282.009 180.249 280.642 181.258 279.187 181.004C278.843 180.966 278.507 180.821 278.237 180.659C277.324 180.112 276.788 179.031 276.968 177.93ZM106.982 62.6865C106.254 61.4065 106.67 59.7716 107.963 59.0277C109.243 58.3045 110.86 58.7119 111.629 60.0169C112.369 61.2762 111.953 62.9111 110.66 63.655C109.774 64.1923 108.737 64.1333 107.928 63.648C107.567 63.4034 107.223 63.0842 106.982 62.6865ZM278.332 164.037L278.32 164.057C278.367 162.567 279.605 161.397 281.085 161.469C282.557 161.507 283.732 162.747 283.684 164.237C283.629 165.694 282.391 166.865 280.919 166.826C280.434 166.788 280.032 166.659 279.637 166.423C278.816 165.958 278.288 165.051 278.332 164.037ZM119.641 56.0176C119.063 54.63 119.678 53.0864 121.066 52.5124C122.412 51.9135 124.001 52.5568 124.559 53.9319C125.162 55.2781 124.522 56.8631 123.134 57.4371C122.338 57.7758 121.434 57.6838 120.708 57.2483C120.252 56.9746 119.874 56.5229 119.641 56.0176ZM277.921 150.092C277.762 148.618 278.879 147.32 280.33 147.205C281.805 147.049 283.109 148.169 283.24 149.597C283.24 149.597 283.24 149.597 283.26 149.609C283.366 151.079 282.27 152.391 280.839 152.517C280.251 152.558 279.687 152.417 279.23 152.143C278.504 151.708 277.985 150.974 277.921 150.092ZM133.036 50.9433C132.645 49.527 133.451 48.0415 134.901 47.6456C136.318 47.2579 137.808 48.0668 138.187 49.5038C138.579 50.9201 137.773 52.4056 136.335 52.7808C135.614 52.9954 134.843 52.8704 134.22 52.4971C133.681 52.1736 133.224 51.6184 133.036 50.9433ZM275.766 136.283C275.473 134.842 276.362 133.406 277.838 133.11C279.272 132.788 280.699 133.7 281.025 135.133C281.338 136.587 280.428 138.01 278.994 138.332C278.289 138.472 277.605 138.342 277.045 138.007C276.41 137.654 275.937 137.032 275.766 136.283ZM146.953 47.5878C146.727 46.1302 147.728 44.7899 149.166 44.5554C150.658 44.3251 152.003 45.3284 152.229 46.7859C152.455 48.2435 151.475 49.5963 150.003 49.839C149.357 49.9294 148.759 49.7963 148.22 49.4728C147.564 49.1078 147.087 48.3994 146.953 47.5878ZM271.923 122.84C271.432 121.449 272.176 119.926 273.568 119.439C274.96 118.952 276.487 119.698 276.978 121.09C277.469 122.482 276.725 124.004 275.333 124.491C274.542 124.776 273.737 124.66 273.073 124.261C272.567 123.93 272.148 123.453 271.923 122.84ZM161.179 46.0211C161.139 44.5347 162.306 43.2939 163.794 43.2582C165.25 43.2307 166.495 44.3995 166.547 45.8652C166.566 47.3391 165.419 48.5923 163.943 48.6074C163.4 48.6192 162.911 48.4945 162.496 48.2457C161.728 47.7853 161.205 46.965 161.179 46.0211ZM266.431 109.984C265.749 108.675 266.273 107.048 267.624 106.395C268.921 105.738 270.538 106.287 271.22 107.596C271.869 108.913 271.324 110.527 270.027 111.184C269.182 111.605 268.179 111.538 267.432 111.09C267.029 110.82 266.656 110.456 266.431 109.984ZM175.511 46.2057C175.62 44.7527 176.97 43.6776 178.434 43.8241C179.885 43.9912 180.969 45.2882 180.826 46.7495C180.663 48.1983 179.354 49.2982 177.903 49.1311C177.472 49.0976 177.123 48.973 176.791 48.7739C175.941 48.2638 175.396 47.2903 175.511 46.2057ZM259.374 97.9036C258.567 96.6607 258.855 95.005 260.098 94.2031C261.34 93.4012 262.999 93.6928 263.805 94.9356C264.636 96.1371 264.303 97.8218 263.081 98.6361C262.191 99.2272 261.075 99.2054 260.204 98.6828C259.893 98.4962 259.598 98.2351 259.374 97.9036ZM189.684 48.2077C190.021 46.7508 191.455 45.8663 192.906 46.1741C192.906 46.1741 192.906 46.1741 192.927 46.1866C194.366 46.5152 195.276 47.961 194.938 49.418C194.613 50.8542 193.167 51.7594 191.708 51.4184C191.442 51.3436 191.177 51.2688 190.928 51.1195C189.965 50.5141 189.433 49.3791 189.684 48.2077ZM250.821 86.8116C249.853 85.6969 249.971 83.9955 251.085 83.032C252.211 82.0478 253.882 82.1779 254.883 83.2843C254.883 83.2843 254.883 83.2843 254.87 83.305C255.85 84.399 255.733 86.1005 254.631 87.0433C253.724 87.8497 252.439 87.9229 251.485 87.3505C251.257 87.2137 251.012 87.0106 250.821 86.8116ZM203.54 51.9607C204.056 50.5825 205.573 49.8886 207 50.3786C208.381 50.8976 209.067 52.4343 208.593 53.8373C208.076 55.2154 206.515 55.9383 205.133 55.4193C204.976 55.3529 204.839 55.2989 204.673 55.1994C203.573 54.54 203.09 53.1815 203.54 51.9607ZM240.976 76.8858C239.86 75.8786 239.77 74.1935 240.743 73.0891C241.728 71.964 243.436 71.8913 244.544 72.8654C245.652 73.8394 245.75 75.5577 244.778 76.6621C243.913 77.6341 242.499 77.8272 241.4 77.1678C241.234 77.0683 241.088 76.9812 240.976 76.8858ZM216.778 57.4518C217.451 56.1401 219.063 55.616 220.399 56.3046C221.702 57.0015 222.223 58.5794 221.536 59.9118C220.842 61.2111 219.242 61.7145 217.927 61.0383C217.886 61.0135 217.844 60.9886 217.782 60.9512C216.566 60.2503 216.12 58.689 216.778 57.4518ZM229.961 68.2547C228.712 67.4212 228.406 65.7193 229.254 64.5402C230.086 63.2949 231.756 63.0027 232.972 63.8444C234.2 64.6655 234.51 66.3135 233.658 67.5464C232.863 68.7296 231.301 69.0303 230.098 68.3086C230.044 68.3044 230.002 68.2795 229.961 68.2547Z" fill="black"/>
<path d="M263.497 220.902C263.207 220.728 262.933 220.479 262.737 220.193C262.521 219.895 262.38 219.614 262.267 219.237C262.101 218.574 262.211 217.825 262.571 217.225C262.943 216.604 263.54 216.174 264.215 215.989C264.567 215.919 264.928 215.882 265.281 215.953C266.342 216.111 267.235 216.927 267.493 217.955C267.648 218.638 267.549 219.366 267.177 219.987C266.817 220.587 266.209 221.038 265.545 221.202C265.202 221.306 264.853 221.322 264.48 221.239C264.136 221.201 263.788 221.076 263.497 220.902Z" fill="black"/>
<path d="M96.6051 120.819C96.4391 120.72 96.327 120.625 96.1735 120.504C96.053 120.376 95.941 120.281 95.8454 120.111C95.7042 119.97 95.6625 119.804 95.5545 119.655C95.4796 119.498 95.4379 119.332 95.3754 119.154C95.3006 118.996 95.292 118.823 95.3166 118.64C95.3081 118.466 95.2995 118.293 95.3241 118.11C95.3695 117.941 95.4024 117.792 95.4602 117.601C95.5055 117.432 95.5924 117.287 95.6792 117.142C96.0514 116.521 96.627 116.079 97.3232 115.906C98.351 115.65 99.4916 116.053 100.131 116.915C100.327 117.201 100.476 117.516 100.56 117.847C100.664 118.191 100.681 118.538 100.624 118.869C100.574 119.234 100.45 119.581 100.277 119.871C99.917 120.471 99.3083 120.922 98.6244 121.074C97.9573 121.293 97.2068 121.18 96.6051 120.819Z" fill="black"/>
<path d="M104.431 109.227C103.302 108.24 103.18 106.564 104.144 105.426C105.116 104.322 106.828 104.195 107.916 105.157C109.058 106.123 109.168 107.82 108.183 108.945C107.339 109.93 105.913 110.143 104.792 109.472C104.668 109.397 104.564 109.335 104.431 109.227ZM239.567 187.566C240.104 186.2 241.641 185.519 243.035 186.017C244.425 186.569 245.132 188.118 244.574 189.472C244.046 190.87 242.475 191.56 241.107 191.02C240.949 190.954 240.812 190.9 240.688 190.825C239.609 190.178 239.105 188.808 239.567 187.566ZM114.171 99.1477C113.228 97.9916 113.387 96.315 114.563 95.3889C115.719 94.4503 117.373 94.6548 118.328 95.7902C119.271 96.9463 119.1 98.6436 117.924 99.5697C117.025 100.268 115.794 100.346 114.86 99.786C114.591 99.6242 114.346 99.4211 114.171 99.1477ZM243.258 174.591C243.53 173.15 244.946 172.199 246.389 172.474C247.853 172.761 248.788 174.166 248.517 175.606C248.233 177.067 246.829 177.998 245.386 177.723C245.087 177.656 244.78 177.557 244.51 177.395C243.577 176.835 243.053 175.733 243.258 174.591ZM125.493 90.9455C124.766 89.6654 125.224 88.0554 126.537 87.324C127.817 86.6008 129.43 87.062 130.178 88.3545C130.893 89.6552 130.423 91.286 129.143 92.0092C128.273 92.4719 127.237 92.4129 126.469 91.9526C126.042 91.7244 125.743 91.3763 125.493 90.9455ZM244.631 161.153C244.645 159.671 245.863 158.488 247.334 158.527C248.819 158.545 250.006 159.764 249.992 161.246C249.969 162.695 248.74 163.898 247.268 163.859C246.779 163.876 246.302 163.73 245.928 163.506C245.119 163.021 244.599 162.147 244.631 161.153ZM138.087 84.8561C137.596 83.4645 138.34 81.9417 139.74 81.4877C141.145 80.98 142.659 81.7475 143.13 83.1266C143.63 84.5513 142.865 86.0617 141.485 86.5281C140.694 86.8129 139.889 86.6962 139.225 86.298C138.686 85.9745 138.3 85.4897 138.087 84.8561ZM243.599 147.68C243.353 146.21 244.366 144.849 245.804 144.615C247.276 144.372 248.62 145.375 248.88 146.825C249.106 148.282 248.125 149.635 246.675 149.89C246.016 150.001 245.389 149.823 244.891 149.524C244.248 149.138 243.766 148.484 243.599 147.68ZM151.53 81.0198C151.304 79.5622 152.285 78.2094 153.744 77.9874C153.744 77.9874 153.744 77.9874 153.723 77.9749C155.215 77.7446 156.56 78.7479 156.798 80.1848C157.045 81.6548 156.044 82.9952 154.593 83.2503C153.946 83.3407 153.308 83.1828 152.81 82.8842C152.133 82.5067 151.652 81.8521 151.53 81.0198ZM240.296 134.561C239.805 133.169 240.561 131.626 241.962 131.172C243.354 130.685 244.881 131.432 245.36 132.844C245.851 134.236 245.107 135.758 243.694 136.233C242.927 136.476 242.111 136.38 241.447 135.982C240.928 135.671 240.509 135.195 240.296 134.561ZM165.453 79.5811C165.468 78.0989 166.706 76.9286 168.169 76.9342C169.641 76.973 170.828 78.1915 170.814 79.6736C170.812 81.1351 169.562 82.3261 168.098 82.3205C167.601 82.3034 167.157 82.1497 166.784 81.9258C165.974 81.4405 165.422 80.5747 165.453 79.5811ZM234.755 122.209C234.028 120.929 234.511 119.278 235.799 118.588C237.079 117.865 238.705 118.305 239.44 119.618C240.155 120.919 239.685 122.55 238.418 123.252C237.523 123.757 236.52 123.689 235.731 123.216C235.337 122.98 235.005 122.64 234.755 122.209ZM179.443 80.5727C179.727 79.1115 181.143 78.1608 182.574 78.4562C184.05 78.7227 184.985 80.1272 184.713 81.5677C184.43 83.0288 183.026 83.9589 181.582 83.6842C181.284 83.6176 180.977 83.5179 180.707 83.3562C179.753 82.7839 179.216 81.7027 179.443 80.5727ZM227.164 111.019C226.222 109.863 226.381 108.186 227.557 107.26C228.712 106.322 230.391 106.485 231.322 107.662C232.264 108.818 232.105 110.494 230.929 111.42C230.018 112.14 228.8 112.197 227.866 111.637C227.609 111.454 227.364 111.251 227.164 111.019ZM193.021 83.99C193.57 82.6037 195.12 81.9014 196.497 82.4742C197.878 82.9932 198.565 84.5299 198.015 85.9162C197.499 87.2943 195.962 87.9759 194.56 87.4445C194.402 87.3781 194.299 87.3159 194.153 87.2288C193.054 86.5693 192.571 85.2109 193.021 83.99ZM217.727 101.309C216.618 100.335 216.475 98.6456 217.46 97.5205C218.412 96.4037 220.124 96.2771 221.211 97.2387C222.353 98.2046 222.463 99.9021 221.499 101.04C220.634 102.012 219.187 102.213 218.088 101.554C217.984 101.491 217.859 101.417 217.727 101.309ZM206.745 93.3734C205.479 92.6144 205.062 90.9579 205.819 89.696C206.576 88.434 208.234 88.0218 209.499 88.7807C210.785 89.5521 211.194 91.1755 210.446 92.4705C209.689 93.7325 208.031 94.1448 206.766 93.3858C205.479 92.6144 206.766 93.3858 206.745 93.3734Z" fill="black"/>
<path d="M234.534 203.533C234.243 203.359 233.969 203.11 233.753 202.812C233.558 202.526 233.396 202.232 233.325 201.88C233.241 201.549 233.204 201.189 233.261 200.857C233.298 200.514 233.442 200.179 233.616 199.889C233.715 199.724 233.79 199.599 233.931 199.459C234.038 199.326 234.167 199.207 234.316 199.099C234.465 198.992 234.61 198.938 234.78 198.843C234.916 198.756 235.082 198.715 235.26 198.653C235.592 198.57 235.952 198.534 236.284 198.592C237.346 198.75 238.259 199.579 238.517 200.606C238.526 200.78 238.568 200.946 238.576 201.12C238.552 201.302 238.593 201.467 238.548 201.637C238.503 201.807 238.457 201.977 238.433 202.159C238.354 202.337 238.301 202.473 238.201 202.639C238.028 202.928 237.779 203.201 237.494 203.396C237.208 203.59 236.914 203.751 236.582 203.834C235.865 203.994 235.135 203.894 234.534 203.533Z" fill="black"/>
<path d="M124.863 137.765C124.261 137.405 123.809 136.795 123.633 136.1C123.467 135.437 123.577 134.688 123.937 134.088C124.309 133.467 124.906 133.037 125.581 132.852C126.609 132.596 127.77 133.011 128.389 133.861C128.605 134.159 128.734 134.461 128.859 134.818C129.014 135.501 128.915 136.229 128.543 136.85C128.456 136.995 128.349 137.127 128.241 137.26C128.121 137.413 128.005 137.512 127.835 137.607C127.707 137.727 127.55 137.801 127.392 137.876C127.222 137.971 127.057 138.012 126.912 138.066C126.195 138.226 125.444 138.114 124.863 137.765Z" fill="black"/>
<path d="M132.761 126.806C131.748 125.721 131.832 124.027 132.925 123.051C134.01 122.042 135.706 122.131 136.698 123.204C137.678 124.298 137.627 125.983 136.534 126.959C135.656 127.811 134.338 127.893 133.342 127.296C133.147 127.15 132.952 127.005 132.761 126.806ZM210.295 171.137C210.653 169.692 212.128 168.832 213.53 169.223C214.977 169.585 215.854 171.039 215.454 172.458C215.095 173.903 213.621 174.763 212.219 174.372C211.954 174.297 211.709 174.235 211.501 174.11C210.506 173.513 209.99 172.304 210.295 171.137ZM143.457 118.566C142.787 117.237 143.353 115.635 144.67 114.99C146 114.325 147.605 114.894 148.254 116.211C148.924 117.541 148.358 119.143 147.041 119.787C146.195 120.209 145.225 120.133 144.478 119.685C144.043 119.424 143.702 119.051 143.457 118.566ZM211.693 158.502C211.642 157.037 212.788 155.784 214.256 155.735C215.744 155.7 217.002 156.848 217.054 158.313C217.054 158.313 217.054 158.313 217.033 158.301C217.093 159.8 215.926 161.041 214.458 161.089C213.915 161.101 213.405 160.963 212.99 160.715C212.223 160.254 211.707 159.467 211.693 158.502ZM156.057 113.69C155.789 112.207 156.77 110.855 158.22 110.6C159.663 110.311 161.04 111.306 161.32 112.768C161.567 114.238 160.587 115.591 159.157 115.858C158.498 115.97 157.826 115.82 157.307 115.509C156.677 115.102 156.182 114.468 156.057 113.69ZM209.44 145.985C208.961 144.572 209.726 143.062 211.147 142.62C212.56 142.146 214.062 142.934 214.52 144.334C214.958 145.721 214.214 147.244 212.813 147.698C212.047 147.941 211.242 147.825 210.599 147.439C210.072 147.095 209.665 146.598 209.44 145.985ZM169.516 112.507C169.659 111.046 170.996 109.992 172.448 110.159C173.899 110.326 174.991 111.656 174.828 113.105C174.664 114.554 173.335 115.641 171.863 115.462C171.486 115.432 171.116 115.295 170.805 115.109C169.913 114.574 169.36 113.567 169.516 112.507ZM203.785 134.577C202.954 133.375 203.233 131.686 204.455 130.872C205.681 130.004 207.369 130.341 208.187 131.563C209.018 132.765 208.718 134.441 207.484 135.276C206.614 135.88 205.466 135.866 204.594 135.344C204.283 135.157 203.988 134.896 203.785 134.577ZM182.762 115.163C183.332 113.789 184.885 113.173 186.263 113.746C187.619 114.307 188.26 115.872 187.69 117.246C187.132 118.599 185.566 119.235 184.189 118.663C184.064 118.588 183.969 118.559 183.844 118.484C182.712 117.833 182.233 116.421 182.762 115.163ZM195.11 125.24C193.956 124.295 193.78 122.614 194.723 121.464C195.634 120.322 197.316 120.15 198.47 121.095C198.47 121.095 198.47 121.095 198.483 121.075C199.637 122.02 199.813 123.701 198.87 124.851C198.022 125.889 196.55 126.132 195.409 125.447C195.305 125.385 195.214 125.302 195.11 125.24Z" fill="black"/>
<path d="M206.276 186.587C205.653 186.214 205.221 185.618 205.034 184.942C204.984 184.744 204.963 184.591 204.967 184.396C204.979 184.234 204.97 184.061 204.995 183.878C205.04 183.709 205.073 183.56 205.131 183.369C205.176 183.2 205.263 183.055 205.35 182.91C205.71 182.31 206.298 181.847 206.994 181.674C208.353 181.336 209.889 182.256 210.231 183.615C210.406 184.311 210.295 185.06 209.935 185.66C209.848 185.805 209.741 185.937 209.633 186.069C209.492 186.21 209.376 186.309 209.227 186.417C209.078 186.524 208.921 186.598 208.784 186.685C208.614 186.78 208.449 186.822 208.27 186.883C208.138 186.916 207.951 186.945 207.756 186.941C207.595 186.928 207.408 186.957 207.238 186.911C207.056 186.886 206.873 186.861 206.716 186.795C206.579 186.741 206.421 186.675 206.276 186.587Z" fill="black"/>
<path d="M395.673 315.749C395.051 315.376 394.619 314.779 394.443 314.083C394.369 313.926 394.36 313.752 394.385 313.57C394.376 313.396 394.367 313.222 394.392 313.04C394.437 312.87 394.47 312.721 394.528 312.531C394.573 312.361 394.66 312.216 394.747 312.072C394.846 311.906 394.921 311.782 395.062 311.641C395.169 311.509 395.285 311.41 395.447 311.282C395.596 311.174 395.741 311.12 395.911 311.025C396.047 310.939 396.213 310.897 396.391 310.835C396.723 310.753 397.083 310.716 397.415 310.774C398.132 310.895 398.776 311.281 399.179 311.832C399.374 312.118 399.544 312.445 399.607 312.764C399.657 312.963 399.678 313.116 399.687 313.29C399.662 313.472 399.704 313.638 399.658 313.807C399.621 314.01 399.568 314.147 399.543 314.329C399.465 314.507 399.411 314.643 399.312 314.809C399.225 314.954 399.117 315.086 399.01 315.218C398.869 315.359 398.774 315.471 398.604 315.566C398.475 315.686 398.297 315.748 398.161 315.834C397.991 315.929 397.825 315.971 397.659 316.012C397.005 316.21 396.275 316.11 395.673 315.749Z" fill="black"/>
<path d="M233.076 350.75C231.86 349.908 231.551 348.26 232.391 347.048C233.21 345.823 234.859 345.519 236.088 346.34C237.304 347.181 237.642 348.875 236.794 350.054C236 351.237 234.425 351.559 233.201 350.825C233.159 350.8 233.118 350.775 233.076 350.75ZM244.491 354.67C245.186 353.371 246.798 352.847 248.1 353.544C249.416 354.22 249.924 355.818 249.25 357.13C248.555 358.429 246.944 358.954 245.641 358.257C245.599 358.232 245.545 358.228 245.483 358.19C244.28 357.469 243.863 355.953 244.491 354.67ZM221.517 341.708C221.517 341.708 221.517 341.708 221.504 341.729C220.408 340.734 220.298 339.037 221.271 337.932C222.276 336.82 223.963 336.734 225.072 337.709C226.201 338.695 226.291 340.38 225.306 341.505C224.441 342.477 223.027 342.67 221.928 342.011C221.782 341.924 221.67 341.829 221.517 341.708ZM257.476 360.77C258.005 359.371 259.554 358.669 260.936 359.187C262.329 359.686 263.057 361.247 262.541 362.625C262.025 364.004 260.484 364.739 259.082 364.208C259.082 364.208 259.082 364.208 259.103 364.22C258.924 364.141 258.787 364.087 258.642 364C257.522 363.328 257.06 361.982 257.476 360.77ZM211.199 331.302C210.21 330.175 210.316 328.494 211.442 327.51C212.556 326.546 214.26 326.668 215.227 327.783C216.216 328.91 216.09 330.578 214.964 331.562C214.09 332.36 212.797 332.401 211.842 331.828C211.581 331.7 211.39 331.501 211.199 331.302ZM271.11 365.176C271.448 363.719 272.881 362.835 274.341 363.176C275.78 363.505 276.682 364.917 276.365 366.387C276.039 367.823 274.594 368.728 273.134 368.387C272.868 368.312 272.603 368.238 272.375 368.101C271.391 367.483 270.838 366.335 271.11 365.176ZM202.243 319.659C201.437 318.416 201.745 316.773 202.967 315.958C204.21 315.156 205.868 315.448 206.675 316.691C207.506 317.892 207.193 319.589 205.951 320.391C205.06 320.982 203.945 320.96 203.094 320.45C202.762 320.251 202.468 319.99 202.243 319.659ZM285.201 367.832C285.365 366.384 286.661 365.304 288.125 365.451C289.576 365.618 290.681 366.927 290.517 368.376C290.395 369.85 289.045 370.925 287.594 370.758C287.204 370.749 286.814 370.6 286.482 370.401C285.631 369.891 285.099 368.896 285.201 367.832ZM194.828 306.999C194.179 305.682 194.712 304.088 196.021 303.411C197.351 302.745 198.956 303.314 199.617 304.611C200.286 305.941 199.775 307.546 198.424 308.199C197.579 308.62 196.597 308.566 195.85 308.118C195.414 307.856 195.073 307.484 194.828 306.999ZM299.493 368.696C299.462 367.243 300.608 365.99 302.096 365.954C303.585 365.918 304.809 367.075 304.849 368.561C304.901 370.027 303.734 371.267 302.245 371.303C301.736 371.307 301.213 371.19 300.798 370.941C300.051 370.493 299.519 369.64 299.493 368.696ZM189.07 293.504C188.579 292.113 189.323 290.59 190.703 290.124C192.107 289.616 193.634 290.363 194.138 291.734C194.629 293.125 193.885 294.648 192.493 295.135C191.701 295.42 190.897 295.303 190.233 294.905C189.723 294.627 189.283 294.138 189.07 293.504ZM313.798 367.796C313.564 366.305 314.565 364.965 316.024 364.743C317.504 364.533 318.861 365.516 319.087 366.973C319.313 368.431 318.3 369.792 316.861 370.027C316.215 370.117 315.576 369.959 315.078 369.66C314.402 369.283 313.92 368.628 313.798 367.796ZM185.036 279.44C184.71 278.008 185.62 276.584 187.054 276.263C188.509 275.954 189.936 276.866 190.262 278.299C190.587 279.732 189.678 281.155 188.244 281.477C187.539 281.617 186.855 281.487 186.295 281.152C185.672 280.778 185.207 280.19 185.036 279.44ZM327.848 365.111C327.457 363.695 328.275 362.189 329.713 361.814C331.11 361.413 332.62 362.235 332.999 363.672C333.404 365.067 332.585 366.574 331.147 366.949C330.426 367.163 329.655 367.038 329.053 366.677C328.493 366.342 328.036 365.786 327.848 365.111ZM182.8 264.964C182.641 263.49 183.758 262.191 185.221 262.056C186.672 261.942 187.988 263.04 188.119 264.469C188.266 265.964 187.161 267.242 185.698 267.377C185.13 267.43 184.566 267.289 184.109 267.015C183.391 266.613 182.864 265.846 182.8 264.964ZM341.477 360.683C340.899 359.296 341.527 357.731 342.902 357.178C344.249 356.579 345.837 357.222 346.395 358.597C346.998 359.944 346.358 361.529 344.982 362.082C344.175 362.441 343.258 362.37 342.532 361.935C342.088 361.64 341.698 361.209 341.477 360.683ZM182.385 250.37C182.42 248.9 183.657 247.73 185.15 247.781C186.622 247.82 187.784 249.08 187.749 250.549C187.694 252.007 186.456 253.177 184.963 253.126C184.499 253.1 184.076 252.959 183.702 252.735C182.872 252.238 182.353 251.363 182.385 250.37ZM354.419 354.577C353.692 353.297 354.108 351.663 355.4 350.919C356.68 350.195 358.298 350.603 359.067 351.908C359.807 353.167 359.39 354.802 358.086 355.567C357.212 356.083 356.187 356.004 355.358 355.506C354.972 355.303 354.681 354.988 354.419 354.577ZM183.801 235.778C184.019 234.333 185.385 233.324 186.874 233.57C188.329 233.824 189.31 235.199 189.092 236.644C188.829 238.118 187.454 239.093 186.02 238.852C185.655 238.802 185.339 238.669 185.07 238.507C184.157 237.96 183.608 236.899 183.801 235.778ZM366.526 346.902C365.637 345.75 365.829 344.065 367.013 343.172L367.026 343.152C368.189 342.246 369.852 342.484 370.783 343.66C371.659 344.833 371.434 346.526 370.282 347.411C369.376 348.077 368.169 348.113 367.277 347.578C366.966 347.391 366.721 347.188 366.526 346.902ZM187.047 221.522C187.447 220.103 188.95 219.289 190.381 219.725C191.804 220.128 192.61 221.652 192.169 223.047C191.736 224.475 190.265 225.281 188.855 224.857C188.623 224.774 188.424 224.683 188.237 224.571C187.22 223.961 186.675 222.706 187.047 221.522ZM377.527 337.776C376.477 336.752 376.487 335.043 377.53 334.009C378.585 332.954 380.264 332.976 381.336 334.013C382.361 335.078 382.343 336.754 381.321 337.801C380.431 338.673 379.067 338.784 378.071 338.187C377.884 338.075 377.689 337.929 377.527 337.776ZM192.075 207.774C192.654 206.433 194.228 205.831 195.593 206.424C196.937 207.005 197.545 208.579 196.966 209.92C196.376 211.281 194.822 211.896 193.457 211.303C193.32 211.249 193.237 211.199 193.154 211.149C192.013 210.465 191.526 209.02 192.075 207.774ZM387.283 327.341C386.117 326.416 385.907 324.744 386.817 323.602C387.74 322.439 389.414 322.234 390.581 323.159C391.747 324.083 391.957 325.756 391.047 326.898C390.173 327.977 388.702 328.22 387.561 327.536C387.478 327.486 387.354 327.411 387.283 327.341Z" fill="black"/>
<path d="M199.797 198.285C199.195 197.924 198.743 197.315 198.567 196.619C198.484 196.288 198.467 195.94 198.524 195.609C198.561 195.265 198.685 194.918 198.859 194.628C199.032 194.338 199.281 194.065 199.579 193.85C199.865 193.656 200.159 193.495 200.49 193.413C201.518 193.157 202.68 193.572 203.299 194.422C203.502 194.741 203.685 195.047 203.768 195.378C203.852 195.71 203.869 196.057 203.811 196.389C203.783 196.765 203.638 197.101 203.465 197.39C203.291 197.68 203.063 197.965 202.757 198.147C202.471 198.341 202.177 198.503 201.845 198.585C201.502 198.688 201.153 198.704 200.78 198.621C200.436 198.584 200.087 198.459 199.797 198.285Z" fill="black"/>
<path d="M366.979 298.542C366.689 298.368 366.415 298.119 366.22 297.833C366.024 297.547 365.862 297.253 365.75 296.876C365.583 296.214 365.694 295.464 366.054 294.864C366.227 294.575 366.476 294.302 366.761 294.108C367.059 293.893 367.366 293.711 367.698 293.628C368.05 293.558 368.398 293.542 368.763 293.592C369.277 293.675 369.758 293.908 370.165 294.264C370.298 294.372 370.398 294.488 370.506 294.637C370.614 294.786 370.689 294.944 370.784 295.114C370.871 295.25 370.913 295.416 370.976 295.594C371.059 295.925 371.076 296.273 370.994 296.646C370.957 296.989 370.833 297.337 370.659 297.627C370.3 298.226 369.691 298.677 369.028 298.842C368.829 298.891 368.676 298.912 368.501 298.92C368.307 298.916 368.132 298.924 367.962 298.878C367.78 298.853 367.618 298.841 367.461 298.774C367.303 298.708 367.145 298.641 366.979 298.542Z" fill="black"/>
<path d="M255.462 322.405C256.219 321.143 257.856 320.719 259.142 321.49C260.408 322.249 260.825 323.905 260.068 325.167C259.311 326.429 257.653 326.842 256.388 326.083C255.101 325.311 254.693 323.688 255.462 322.405ZM244.614 317.587C243.472 316.621 243.362 314.924 244.326 313.786C245.299 312.682 246.99 312.543 248.119 313.529C249.24 314.483 249.371 316.193 248.386 317.318C247.542 318.302 246.083 318.524 244.983 317.865C244.838 317.778 244.705 317.67 244.614 317.587ZM267.901 328.993C268.417 327.615 269.975 326.945 271.356 327.464C272.746 328.016 273.432 329.553 272.916 330.931C272.387 332.33 270.817 333.02 269.461 332.46C269.303 332.393 269.166 332.339 269.021 332.252C267.921 331.593 267.405 330.242 267.901 328.993ZM234.482 307.152C233.527 306.017 233.699 304.319 234.875 303.393C236.009 302.442 237.684 302.659 238.64 303.794C239.582 304.951 239.369 306.623 238.247 307.553C237.336 308.273 236.117 308.329 235.184 307.77C234.914 307.608 234.702 307.396 234.482 307.152ZM281.302 333.316C281.586 331.855 282.969 330.913 284.412 331.188C285.876 331.475 286.832 332.892 286.54 334.32C286.256 335.781 284.873 336.723 283.429 336.449C283.11 336.37 282.824 336.282 282.533 336.108C281.608 335.581 281.063 334.467 281.302 333.316ZM226.326 295.116C225.599 293.836 226.069 292.206 227.349 291.482C228.649 290.772 230.296 291.225 231.011 292.525C231.726 293.826 231.256 295.457 229.955 296.168C229.106 296.643 228.07 296.584 227.302 296.123C226.895 295.908 226.563 295.568 226.326 295.116ZM295.21 335.244C295.245 333.774 296.462 332.591 297.946 332.609C299.43 332.627 300.618 333.846 300.604 335.328C300.568 336.798 299.351 337.98 297.867 337.962C297.37 337.945 296.926 337.792 296.552 337.568C295.752 337.116 295.199 336.25 295.21 335.244ZM220.353 281.887C220.353 281.887 220.353 281.887 220.374 281.899C219.874 280.474 220.639 278.964 222.019 278.498C223.444 278.002 224.958 278.77 225.429 280.149C225.908 281.561 225.164 283.084 223.763 283.538C222.993 283.835 222.167 283.706 221.524 283.32C221.018 282.989 220.59 282.479 220.353 281.887ZM309.292 334.716C309.045 333.246 310.046 331.906 311.497 331.65C312.956 331.428 314.334 332.423 314.56 333.881C314.807 335.351 313.806 336.691 312.367 336.926C311.708 337.037 311.057 336.9 310.559 336.601C309.895 336.203 309.414 335.548 309.292 334.716ZM216.841 267.798C216.594 266.328 217.575 264.976 219.034 264.754C220.505 264.511 221.862 265.493 222.109 266.963C222.335 268.421 221.355 269.774 219.883 270.016C219.257 270.119 218.639 269.974 218.1 269.65C217.444 269.285 216.963 268.631 216.841 267.798ZM323.027 331.758C322.535 330.366 323.3 328.856 324.692 328.369C326.084 327.882 327.62 328.661 328.09 330.041C328.569 331.453 327.825 332.976 326.424 333.43C325.633 333.715 324.829 333.598 324.185 333.212C323.667 332.901 323.239 332.391 323.027 331.758ZM215.741 253.357C215.756 251.874 216.973 250.692 218.457 250.71C219.929 250.748 221.116 251.967 221.102 253.449C221.079 254.898 219.85 256.102 218.378 256.063C217.901 256.058 217.412 255.933 217.038 255.709C216.262 255.216 215.722 254.329 215.741 253.357ZM336.057 326.493C335.33 325.213 335.812 323.561 337.08 322.859C338.38 322.148 340.014 322.622 340.742 323.902C341.457 325.202 340.987 326.833 339.707 327.556C338.837 328.019 337.8 327.96 337.033 327.5C336.626 327.284 336.306 326.923 336.057 326.493ZM217.2 238.93C217.484 237.469 218.867 236.526 220.31 236.801C221.774 237.088 222.709 238.493 222.45 239.912C222.166 241.373 220.77 242.337 219.327 242.062C219.008 241.983 218.722 241.896 218.431 241.721C217.518 241.174 216.973 240.06 217.2 238.93ZM347.961 319.061C347.018 317.905 347.177 316.228 348.332 315.29C349.487 314.351 351.167 314.514 352.097 315.691C353.04 316.847 352.868 318.545 351.705 319.45C350.794 320.169 349.575 320.226 348.641 319.666C348.405 319.496 348.16 319.293 347.961 319.061ZM221.171 224.969C221.687 223.591 223.224 222.91 224.614 223.462C225.995 223.981 226.682 225.517 226.153 226.916L226.132 226.904C225.616 228.282 224.079 228.963 222.689 228.411C222.553 228.357 222.416 228.303 222.27 228.216C221.171 227.557 220.688 226.198 221.171 224.969ZM358.356 309.628C357.248 308.654 357.138 306.957 358.09 305.84C359.062 304.735 360.753 304.596 361.882 305.583C363.003 306.536 363.134 308.246 362.174 309.33C361.318 310.335 359.892 310.549 358.771 309.877C358.634 309.823 358.489 309.736 358.356 309.628Z" fill="black"/>
<path d="M228.491 215.492C228.325 215.392 228.213 215.297 228.059 215.177C227.939 215.048 227.827 214.953 227.731 214.783C227.61 214.655 227.548 214.477 227.44 214.327C227.365 214.17 227.323 214.004 227.249 213.847C227.094 213.164 227.205 212.415 227.565 211.815C227.937 211.194 228.533 210.764 229.209 210.578C229.408 210.529 229.561 210.508 229.723 210.521C229.918 210.525 230.092 210.517 230.274 210.542C230.444 210.588 230.593 210.621 230.764 210.667C231.27 210.858 231.701 211.173 232.017 211.587C232.212 211.873 232.362 212.188 232.487 212.544C232.641 213.227 232.543 213.956 232.171 214.577C231.811 215.177 231.202 215.627 230.527 215.813C230.174 215.883 229.826 215.899 229.474 215.828C229.109 215.778 228.781 215.666 228.491 215.492Z" fill="black"/>
<path d="M346.308 267.44C346.142 267.341 346.03 267.246 345.876 267.125C345.756 266.997 345.623 266.889 345.527 266.719C345.407 266.591 345.344 266.413 345.257 266.276C345.182 266.119 345.12 265.94 345.078 265.775C344.89 265.1 345.022 264.363 345.382 263.763C345.754 263.142 346.342 262.679 347.026 262.527C347.183 262.453 347.378 262.457 347.54 262.469C347.714 262.461 347.888 262.453 348.07 262.478C348.24 262.524 348.41 262.57 348.581 262.615C349.447 262.91 350.066 263.619 350.283 264.48C350.333 264.679 350.354 264.832 350.363 265.006C350.338 265.188 350.38 265.354 350.334 265.524C350.297 265.726 350.244 265.863 350.219 266.045C350.141 266.223 350.087 266.36 349.988 266.525C349.628 267.125 349.019 267.576 348.335 267.728C347.66 267.914 346.909 267.801 346.308 267.44Z" fill="#E72485"/>
<path d="M354.113 255.836C353.005 254.862 352.882 253.185 353.846 252.047C354.819 250.943 356.531 250.816 357.639 251.79C358.76 252.744 358.891 254.454 357.906 255.579C357.062 256.563 355.636 256.777 354.516 256.105C354.391 256.03 354.246 255.943 354.113 255.836ZM489.291 334.199C489.807 332.821 491.365 332.152 492.758 332.651C494.127 333.19 494.834 334.739 494.318 336.117C494.318 336.117 494.318 336.117 494.306 336.138C493.79 337.516 492.232 338.185 490.863 337.646C490.705 337.579 490.568 337.525 490.444 337.451C489.311 336.8 488.774 335.437 489.291 334.199ZM363.84 245.777C362.939 244.646 363.098 242.969 364.254 242.031C365.388 241.08 367.063 241.297 368.018 242.432C368.961 243.588 368.79 245.285 367.614 246.211C366.715 246.91 365.496 246.967 364.563 246.407C364.285 246.212 364.061 246.021 363.84 245.777ZM492.948 321.232C493.232 319.771 494.628 318.808 496.071 319.083C497.535 319.37 498.491 320.787 498.219 322.227C497.935 323.688 496.531 324.619 495.088 324.344C494.79 324.277 494.462 324.165 494.213 324.016C493.279 323.456 492.755 322.354 492.948 321.232ZM375.183 237.587C374.456 236.307 374.914 234.697 376.206 233.953C377.507 233.243 379.141 233.716 379.868 234.996C380.583 236.297 380.113 237.928 378.812 238.638C377.963 239.114 376.927 239.055 376.159 238.594C375.765 238.358 375.4 238.026 375.183 237.587ZM494.313 307.762L494.334 307.774C494.348 306.292 495.565 305.109 497.037 305.148C498.5 305.154 499.709 306.385 499.673 307.854C499.673 307.854 499.673 307.854 499.694 307.867C499.659 309.337 498.442 310.519 496.958 310.501C496.46 310.484 496.037 310.343 495.643 310.107C494.842 309.654 494.302 308.768 494.313 307.762ZM387.79 231.477C387.278 230.073 388.042 228.563 389.422 228.096C390.847 227.601 392.362 228.369 392.832 229.748C393.332 231.172 392.567 232.683 391.187 233.149L391.167 233.137C390.396 233.434 389.571 233.305 388.928 232.919C388.409 232.608 387.981 232.098 387.79 231.477ZM493.323 294.314C493.076 292.844 494.077 291.503 495.528 291.248C496.999 291.005 498.344 292.009 498.603 293.458C498.829 294.916 497.848 296.268 496.398 296.524C495.739 296.635 495.088 296.497 494.569 296.186C493.926 295.801 493.448 295.092 493.323 294.314ZM401.253 227.653C401.007 226.183 402.008 224.843 403.446 224.608C404.917 224.366 406.295 225.361 406.521 226.818C406.747 228.276 405.767 229.629 404.316 229.884C403.67 229.974 403.031 229.816 402.512 229.505C401.857 229.14 401.375 228.486 401.253 227.653ZM489.999 281.182C489.487 279.778 490.264 278.247 491.644 277.781C493.057 277.306 494.583 278.053 495.041 279.453C495.553 280.857 494.789 282.367 493.397 282.854C492.63 283.097 491.813 283.001 491.149 282.603C490.63 282.292 490.211 281.816 489.999 281.182ZM415.177 226.215C415.191 224.732 416.408 223.55 417.892 223.568C419.364 223.607 420.552 224.825 420.537 226.307C420.502 227.777 419.285 228.96 417.813 228.921C417.324 228.937 416.847 228.791 416.474 228.568C415.665 228.082 415.145 227.208 415.177 226.215ZM484.458 268.83C483.731 267.55 484.213 265.899 485.481 265.196C486.781 264.486 488.428 264.939 489.143 266.239C489.837 267.528 489.388 269.171 488.087 269.882C487.238 270.357 486.201 270.298 485.434 269.838C485.04 269.601 484.707 269.261 484.458 268.83ZM429.133 227.214C429.417 225.753 430.833 224.803 432.243 225.086C432.243 225.086 432.243 225.086 432.255 225.065C433.719 225.352 434.675 226.769 434.403 228.209C434.12 229.671 432.716 230.601 431.272 230.326C430.949 230.301 430.646 230.147 430.397 229.998C429.464 229.438 428.94 228.336 429.133 227.214ZM476.867 257.64C475.924 256.484 476.083 254.807 477.238 253.869C478.394 252.93 480.073 253.093 481.003 254.27C481.946 255.426 481.787 257.103 480.632 258.041C479.721 258.761 478.502 258.818 477.568 258.258C477.299 258.096 477.066 257.872 476.867 257.64ZM442.736 230.59C443.273 229.225 444.81 228.543 446.179 229.083C447.581 229.614 448.267 231.151 447.718 232.537C447.202 233.915 445.644 234.584 444.263 234.065C444.105 233.999 443.98 233.924 443.856 233.85C442.777 233.203 442.273 231.832 442.736 230.59ZM467.429 247.93C466.287 246.964 466.177 245.267 467.162 244.142C468.114 243.025 469.826 242.898 470.914 243.86C472.055 244.826 472.165 246.523 471.18 247.648C470.336 248.633 468.91 248.847 467.79 248.175C467.666 248.1 467.562 248.038 467.429 247.93ZM455.522 236.317C456.278 235.055 457.936 234.643 459.202 235.402C460.467 236.161 460.897 237.796 460.127 239.079C459.371 240.341 457.734 240.766 456.447 239.994C455.182 239.235 454.765 237.579 455.522 236.317Z" fill="#E72485"/>
<path d="M484.215 350.142C483.614 349.781 483.161 349.172 483.007 348.489C482.819 347.814 482.93 347.065 483.29 346.465C483.463 346.175 483.712 345.902 484.01 345.687C484.295 345.493 484.59 345.332 484.942 345.262C486.301 344.923 487.836 345.844 488.178 347.202C488.262 347.534 488.3 347.894 488.242 348.225C488.193 348.589 488.048 348.925 487.875 349.214C487.515 349.814 486.927 350.277 486.243 350.43C485.588 350.628 484.838 350.515 484.215 350.142Z" fill="#E72485"/>
<path d="M374.566 284.386C373.964 284.026 373.511 283.416 373.336 282.721C373.303 282.588 373.253 282.389 373.277 282.207C373.269 282.033 373.26 281.86 373.285 281.677C373.33 281.508 373.363 281.359 373.421 281.168C373.466 280.999 373.553 280.854 373.64 280.709C373.813 280.419 374.041 280.134 374.339 279.919C374.625 279.725 374.94 279.576 375.271 279.493C376.631 279.155 378.166 280.076 378.508 281.434C378.612 281.778 378.629 282.126 378.572 282.457C378.522 282.821 378.399 283.169 378.225 283.459C377.865 284.059 377.256 284.509 376.573 284.662C375.918 284.86 375.167 284.747 374.566 284.386Z" fill="#E72485"/>
<path d="M382.484 273.44C381.471 272.354 381.555 270.661 382.628 269.673C383.733 268.676 385.408 268.752 386.4 269.826C387.401 270.932 387.35 272.617 386.257 273.593C385.358 274.432 384.04 274.514 383.065 273.929C382.87 273.784 382.654 273.626 382.484 273.44ZM459.976 317.745C460.356 316.313 461.83 315.453 463.232 315.844C464.679 316.206 465.556 317.66 465.156 319.08C465.156 319.08 465.156 319.08 465.144 319.1C464.798 320.524 463.344 321.396 461.909 321.014C461.656 320.918 461.424 320.835 461.196 320.698C460.208 320.134 459.692 318.925 459.976 317.745ZM393.18 265.2C392.511 263.87 393.055 262.256 394.393 261.624C395.723 260.959 397.308 261.515 397.977 262.845C398.626 264.162 398.081 265.776 396.764 266.421C395.919 266.842 394.969 266.779 394.202 266.319C393.745 266.045 393.384 265.66 393.18 265.2ZM461.363 305.132C461.323 303.645 462.457 302.413 463.946 302.377C465.413 302.329 466.671 303.477 466.723 304.943C466.762 306.429 465.616 307.682 464.128 307.718C463.605 307.742 463.095 307.605 462.66 307.344C461.913 306.896 461.402 306.055 461.363 305.132ZM405.738 260.299C405.492 258.829 406.472 257.476 407.902 257.208C409.386 256.945 410.743 257.927 411.023 259.389C411.294 260.818 410.289 262.212 408.839 262.467C408.18 262.578 407.528 262.441 407.01 262.13C406.367 261.744 405.885 261.089 405.738 260.299ZM459.122 292.593C458.684 291.206 459.428 289.683 460.829 289.229C462.263 288.767 463.765 289.555 464.202 290.942C464.681 292.355 463.916 293.865 462.495 294.307C461.749 294.562 460.945 294.446 460.301 294.06C459.783 293.749 459.334 293.227 459.122 292.593ZM419.219 259.129C419.341 257.655 420.678 256.6 422.15 256.78C423.601 256.947 424.673 258.265 424.509 259.714C424.366 261.175 423.017 262.25 421.565 262.083C421.147 262.029 420.798 261.904 420.466 261.705C419.615 261.195 419.083 260.201 419.219 259.129ZM453.487 281.198C452.636 279.984 452.936 278.307 454.157 277.493C455.383 276.625 457.05 276.95 457.89 278.184C458.721 279.386 458.42 281.062 457.186 281.897C456.296 282.488 455.168 282.487 454.297 281.965C453.986 281.778 453.691 281.517 453.487 281.198ZM432.452 261.804C433.022 260.43 434.575 259.815 435.953 260.388C437.309 260.948 437.95 262.514 437.38 263.888C436.822 265.241 435.256 265.877 433.879 265.304C433.754 265.23 433.638 265.188 433.555 265.138C432.435 264.466 431.935 263.042 432.452 261.804ZM444.833 271.874C443.68 270.928 443.503 269.247 444.446 268.097C445.357 266.956 447.04 266.784 448.194 267.729C449.339 268.641 449.516 270.322 448.593 271.484C447.724 272.51 446.273 272.765 445.132 272.081C445.029 272.019 444.916 271.923 444.833 271.874Z" fill="#E72485"/>
<path d="M455.958 333.196C455.356 332.835 454.903 332.226 454.728 331.53C454.561 330.868 454.672 330.119 455.032 329.519C455.404 328.898 456 328.468 456.676 328.282C458.056 327.957 459.591 328.878 459.933 330.236C460.108 330.932 459.989 331.648 459.617 332.268C459.257 332.868 458.669 333.331 457.985 333.484C457.31 333.669 456.58 333.569 455.958 333.196Z" fill="#E72485"/>
<path d="M505.152 469.047C505.909 467.785 507.566 467.373 508.832 468.132C510.118 468.903 510.515 470.547 509.779 471.821C509.022 473.083 507.364 473.496 506.078 472.724C504.804 471.932 504.383 470.33 505.152 469.047ZM494.295 464.196C494.295 464.196 494.295 464.196 494.316 464.208C493.174 463.242 493.064 461.545 494.004 460.449C494.968 459.311 496.68 459.185 497.809 460.171C498.93 461.125 499.061 462.835 498.076 463.96C497.232 464.944 495.752 465.154 494.673 464.507C494.528 464.42 494.428 464.304 494.295 464.196ZM517.591 475.634C518.107 474.256 519.665 473.587 521.046 474.106C522.415 474.646 523.101 476.182 522.606 477.573C522.057 478.959 520.507 479.662 519.151 479.101C518.993 479.035 518.856 478.981 518.711 478.894C517.644 478.226 517.12 476.843 517.591 475.634ZM484.185 453.773C483.229 452.638 483.443 450.965 484.577 450.014C485.732 449.076 487.407 449.293 488.363 450.428C489.306 451.584 489.092 453.256 487.937 454.195C487.059 454.906 485.82 454.95 484.886 454.391C484.617 454.229 484.392 454.038 484.185 453.773ZM530.971 479.946C531.255 478.485 532.659 477.555 534.102 477.829C535.566 478.116 536.501 479.521 536.23 480.961C535.971 482.381 534.542 483.353 533.119 483.09C532.8 483.011 532.514 482.924 532.223 482.75C531.29 482.19 530.766 481.088 530.971 479.946ZM476.037 441.771C475.309 440.491 475.759 438.847 477.06 438.137C478.36 437.426 479.994 437.9 480.722 439.18C481.416 440.468 480.967 442.111 479.666 442.822C478.817 443.297 477.78 443.238 476.992 442.765C476.598 442.529 476.232 442.197 476.037 441.771ZM544.933 481.877C544.947 480.395 546.185 479.225 547.669 479.243C549.133 479.248 550.341 480.479 550.306 481.949C550.292 483.431 549.074 484.614 547.59 484.596C547.093 484.579 546.637 484.446 546.263 484.222C545.421 483.745 544.922 482.883 544.933 481.877ZM470.055 428.508C469.576 427.095 470.32 425.573 471.721 425.119C473.126 424.611 474.64 425.378 475.131 426.77C475.61 428.182 474.845 429.693 473.466 430.159C472.674 430.444 471.87 430.327 471.206 429.929C470.708 429.63 470.301 429.133 470.055 428.508ZM558.994 481.337C558.748 479.867 559.749 478.527 561.2 478.271C562.659 478.049 564.016 479.032 564.262 480.502C564.488 481.96 563.508 483.312 562.07 483.547C561.411 483.658 560.76 483.521 560.241 483.21C559.598 482.824 559.116 482.169 558.994 481.337ZM466.498 414.448C466.284 412.97 467.265 411.617 468.724 411.395C470.195 411.153 471.552 412.135 471.778 413.593C472.025 415.063 471.024 416.403 469.573 416.658C468.947 416.761 468.329 416.616 467.79 416.292C467.134 415.927 466.644 415.239 466.498 414.448ZM572.737 478.412C572.246 477.02 572.99 475.497 574.403 475.023C575.795 474.536 577.31 475.303 577.801 476.695C578.28 478.107 577.515 479.617 576.135 480.084C575.344 480.369 574.539 480.252 573.875 479.854C573.369 479.522 572.962 479.025 572.737 478.412ZM465.423 399.965C465.458 398.495 466.675 397.313 468.147 397.351C469.611 397.357 470.819 398.588 470.784 400.058L470.804 400.07C470.782 401.519 469.552 402.723 468.08 402.684C467.571 402.687 467.114 402.554 466.741 402.33C465.944 401.825 465.425 400.95 465.423 399.965ZM585.78 473.126C585.053 471.846 585.51 470.236 586.803 469.492C588.104 468.781 589.738 469.255 590.465 470.535C591.18 471.836 590.71 473.467 589.409 474.177C588.56 474.653 587.524 474.594 586.756 474.133C586.329 473.905 585.996 473.565 585.78 473.126ZM466.902 385.551C467.186 384.09 468.59 383.16 470.054 383.447C471.518 383.734 472.453 385.138 472.194 386.558C471.91 388.019 470.493 388.97 469.071 388.708C468.752 388.629 468.465 388.542 468.175 388.367C467.221 387.795 466.676 386.681 466.902 385.551ZM597.663 465.682C596.72 464.526 596.9 462.862 598.055 461.923C599.211 460.985 600.89 461.148 601.82 462.325C602.763 463.481 602.592 465.178 601.416 466.104C600.517 466.803 599.298 466.86 598.365 466.3C598.128 466.13 597.862 465.914 597.663 465.682ZM470.853 371.578C471.39 370.212 472.927 369.531 474.32 370.029C475.71 370.581 476.396 372.118 475.88 373.496L475.868 373.517C475.352 374.895 473.815 375.576 472.425 375.024C472.267 374.958 472.131 374.904 472.006 374.829C470.894 374.19 470.39 372.819 470.853 371.578ZM608.067 456.282C606.959 455.308 606.848 453.611 607.8 452.494C608.773 451.39 610.464 451.251 611.572 452.225C612.693 453.178 612.824 454.888 611.839 456.013C610.995 456.998 609.549 457.199 608.428 456.527C608.324 456.465 608.179 456.378 608.067 456.282Z" fill="#E72485"/>
<path d="M478.193 362.113C477.571 361.74 477.139 361.143 476.963 360.447C476.776 359.772 476.907 359.036 477.267 358.436C477.639 357.815 478.215 357.373 478.911 357.199C480.271 356.861 481.806 357.782 482.148 359.14C482.323 359.836 482.225 360.565 481.852 361.185C481.493 361.785 480.884 362.236 480.2 362.388C479.545 362.586 478.795 362.474 478.193 362.113Z" fill="#E72485"/>
<path d="M338.431 281.422C338.286 281.335 338.153 281.227 338.02 281.119C337.867 280.999 337.767 280.883 337.671 280.713C337.551 280.584 337.476 280.427 337.401 280.27C337.306 280.1 337.264 279.934 337.222 279.769C337.118 279.425 337.101 279.077 337.158 278.746C337.195 278.402 337.319 278.055 337.493 277.765C337.865 277.144 338.474 276.694 339.157 276.541C339.315 276.467 339.489 276.459 339.671 276.484C339.846 276.476 340.02 276.468 340.202 276.493C340.372 276.538 340.522 276.572 340.712 276.63C341.04 276.742 341.351 276.929 341.604 277.165C341.737 277.273 341.858 277.401 341.945 277.538C342.074 277.699 342.128 277.844 342.223 278.014C342.311 278.151 342.352 278.317 342.415 278.495C342.569 279.178 342.471 279.906 342.099 280.527C341.739 281.127 341.13 281.578 340.467 281.743C340.268 281.792 340.115 281.813 339.941 281.821C339.746 281.816 339.592 281.837 339.402 281.779C339.24 281.766 339.058 281.741 338.9 281.675C338.734 281.575 338.597 281.521 338.431 281.422Z" fill="black"/>
<path d="M267.545 293.507C266.391 292.562 266.214 290.881 267.145 289.752C268.089 288.602 269.772 288.43 270.905 289.362C272.059 290.308 272.248 291.968 271.304 293.118C270.456 294.156 268.985 294.399 267.844 293.715C267.761 293.665 267.669 293.582 267.545 293.507ZM278.338 297.336C278.908 295.962 280.474 295.326 281.839 295.919C283.216 296.492 283.836 298.045 283.278 299.399C282.708 300.773 281.142 301.408 279.765 300.836C279.64 300.761 279.545 300.732 279.441 300.67C278.321 299.998 277.821 298.573 278.338 297.336ZM257.861 283.031C257.03 281.83 257.33 280.153 258.552 279.339C259.774 278.525 261.445 278.795 262.263 280.018C263.094 281.219 262.803 282.929 261.581 283.743C260.678 284.355 259.563 284.333 258.691 283.81C258.38 283.624 258.094 283.396 257.861 283.031ZM291.241 301.502C291.405 300.053 292.701 298.974 294.173 299.153C295.624 299.32 296.696 300.638 296.532 302.087C296.369 303.536 295.039 304.623 293.588 304.456C293.211 304.427 292.821 304.277 292.53 304.103C291.638 303.568 291.085 302.561 291.241 301.502ZM251.536 270.294C251.057 268.881 251.835 267.35 253.223 266.917C254.636 266.442 256.171 267.222 256.629 268.622C257.054 270.03 256.31 271.553 254.909 272.007C254.155 272.23 253.338 272.134 252.695 271.748C252.156 271.425 251.728 270.915 251.536 270.294ZM304.715 301.847C304.469 300.377 305.449 299.024 306.891 298.736L306.912 298.748C308.342 298.481 309.72 299.476 310 300.938C310.272 302.366 309.279 303.74 307.816 304.016C307.816 304.016 307.816 304.016 307.836 304.028C307.177 304.139 306.505 303.989 305.987 303.678C305.356 303.272 304.874 302.617 304.715 301.847ZM249.028 256.273C248.976 254.807 250.122 253.554 251.59 253.506C253.078 253.47 254.336 254.618 254.376 256.104C254.427 257.57 253.26 258.811 251.793 258.859C251.25 258.871 250.74 258.734 250.325 258.485C249.59 258.016 249.054 257.217 249.028 256.273ZM317.794 298.383C317.112 297.074 317.657 295.46 319.008 294.807C320.325 294.163 321.943 294.711 322.591 296.028C323.261 297.358 322.695 298.959 321.366 299.625C320.533 300.025 319.583 299.962 318.816 299.502C318.392 299.22 318.04 298.868 317.794 298.383ZM250.586 242.103C250.944 240.658 252.407 239.819 253.821 240.189C255.268 240.551 256.12 242.046 255.754 243.458C255.374 244.89 253.912 245.729 252.498 245.359C252.245 245.263 252.013 245.18 251.805 245.056C250.797 244.479 250.248 243.278 250.586 242.103ZM329.35 291.39C328.337 290.304 328.401 288.598 329.494 287.623C330.579 286.614 332.274 286.702 333.267 287.776C334.268 288.882 334.195 290.555 333.123 291.543C332.225 292.382 330.907 292.464 329.931 291.879C329.703 291.742 329.508 291.597 329.35 291.39Z" fill="black"/>
<path d="M257.039 232.612C256.417 232.239 255.985 231.642 255.809 230.946C255.622 230.271 255.753 229.535 256.113 228.935C256.287 228.645 256.514 228.36 256.813 228.145C257.098 227.95 257.413 227.802 257.745 227.719C259.104 227.381 260.639 228.302 260.981 229.66C261.086 230.004 261.103 230.352 261.045 230.683C260.996 231.047 260.872 231.395 260.698 231.684C260.339 232.284 259.73 232.735 259.046 232.887C258.371 233.073 257.641 232.973 257.039 232.612Z" fill="black"/>
</svg>
