<svg width="404" height="253" viewBox="0 0 404 253" fill="none" xmlns="http://www.w3.org/2000/svg">
<path d="M0.371658 25.2232C-0.0308102 10.6112 12.0294 -1.69306 27.5595 1.25838C44.1024 4.39547 61.7395 15.6298 76.9507 25.6288C79.252 21.5913 81.0534 17.2513 82.1719 12.9449C83.6358 7.3027 93.9892 6.83049 94.1149 14.1645C94.2511 21.4459 93.0144 28.3579 90.6526 34.6503C107.652 45.987 124.042 58.2815 140.143 70.9147C178.313 100.861 214.601 133.665 256.751 157.805C276.631 169.196 297.638 178.656 319.382 184.622C333.43 188.465 347.118 189.94 360.921 190.836C347.251 177.813 333.668 164.649 321.371 150.458C314.986 143.115 325.312 136.407 332.096 141.138C355.491 157.459 376.71 177.063 398.717 195.217C403.869 199.479 405.362 207.917 401.07 212.351C389.403 224.436 377.81 236.677 365.974 248.556C355.548 259.022 336.845 243.499 346.271 231.781C352.321 224.231 358.965 217.033 365.919 210.161C337.524 211.601 305.703 201.699 279.955 190.447C239.428 172.732 203.274 145.271 168.845 117.279C140.427 94.1593 112.776 69.5712 82.8489 48.4259C71.0493 63.0124 51.1908 69.8763 28.7577 61.2012C13.8944 55.404 0.832134 40.8995 0.371658 25.2232ZM34.7512 42.7168C47.5094 48.0747 58.6294 44.8417 67.0302 37.7251C62.972 35.1309 58.9035 32.5894 54.7591 30.1371C47.4349 25.8384 23.0266 8.68522 18.8885 20.7844C15.6976 30.1535 26.6329 39.3104 34.7512 42.7168Z" fill="#24B4B0"/>
</svg>
