<?xml version="1.0" encoding="UTF-8"?> <svg xmlns="http://www.w3.org/2000/svg" width="50" height="50" viewBox="0 0 50 50" fill="none"> <path fill-rule="evenodd" clip-rule="evenodd" d="M4.01326 19.4934C4.01326 16.3658 4.80644 13.2894 6.31864 10.5517C7.83083 7.81402 10.0126 5.50458 12.66 3.83934C15.3074 2.17411 18.3338 1.20748 21.4563 1.02985C24.5788 0.852227 27.6954 1.46941 30.5145 2.82368C33.3336 4.17794 35.7633 6.22506 37.5762 8.77358C39.3891 11.3221 40.526 14.2888 40.8807 17.3961C41.2354 20.5035 40.7962 23.6501 39.6042 26.5416C38.4122 29.4331 36.5064 31.975 34.065 33.9298V43.7659C34.065 44.6856 33.6997 45.5675 33.0494 46.2178C32.3991 46.8681 31.5171 47.2334 30.5975 47.2334H19.0391C18.1195 47.2334 17.2375 46.8681 16.5872 46.2178C15.9369 45.5675 15.5716 44.6856 15.5716 43.7659V40.2984H12.719C11.0286 40.2985 9.39636 39.6812 8.12909 38.5625C6.86182 37.4437 6.04678 35.9007 5.83717 34.2233L5.51353 31.6273L3.78671 31.2829C3.28368 31.1822 2.80927 30.9711 2.39767 30.6648C1.98608 30.3586 1.64757 29.9649 1.40654 29.512C1.16551 29.0591 1.02797 28.5584 1.00384 28.046C0.979708 27.5335 1.06959 27.0221 1.26699 26.5486L4.01788 19.9418C4.01456 19.7924 4.01302 19.6429 4.01326 19.4934ZM22.5066 5.62334C20.6412 5.62326 18.7948 5.99949 17.0782 6.72952C15.3615 7.45955 13.8097 8.52837 12.5156 9.87204C11.2216 11.2157 10.2119 12.8066 9.547 14.5496C8.88208 16.2925 8.57558 18.1517 8.64585 20.0158C8.66434 20.5013 8.58343 21.0098 8.38 21.4953L6.07527 27.0271L7.23573 27.2583C7.94932 27.4011 8.59988 27.7649 9.09526 28.298C9.59063 28.8311 9.90571 29.5066 9.99586 30.2288L10.4235 33.65C10.4934 34.2094 10.7653 34.724 11.1881 35.0969C11.6108 35.4699 12.1553 35.6755 12.719 35.6751H16.7274C17.6471 35.6751 18.5291 36.0404 19.1793 36.6907C19.8296 37.341 20.195 38.2229 20.195 39.1426V42.6101H29.4416V33.3773C29.4416 32.2284 30.0057 31.2112 30.8494 30.5755C33.174 28.8261 34.8895 26.39 35.7534 23.6119C36.6173 20.8338 36.5857 17.8544 35.6632 15.0952C34.7407 12.3361 32.9739 9.93683 30.6128 8.23701C28.2517 6.5372 25.4159 5.62285 22.5066 5.62334Z" fill="#E82485"></path> <path d="M18 22.3334L22.6667 14.3334V19.6667H26L21.3333 27.6667V22.3334H18Z" fill="#E82485"></path> <path d="M4.01326 19.4934L4.21326 19.4937L4.21326 19.4934L4.01326 19.4934ZM34.065 33.9298L33.94 33.7736L33.865 33.8337V33.9298H34.065ZM15.5716 43.7659H15.3716H15.5716ZM15.5716 40.2984H15.7716V40.0984H15.5716V40.2984ZM12.719 40.2984L12.719 40.0984L12.719 40.0984L12.719 40.2984ZM5.83717 34.2233L5.6387 34.2481L5.63871 34.2481L5.83717 34.2233ZM5.51353 31.6273L5.712 31.6026L5.69415 31.4594L5.55265 31.4312L5.51353 31.6273ZM3.78671 31.2829L3.74745 31.479L3.74759 31.479L3.78671 31.2829ZM1.26699 26.5486L1.45159 26.6255L1.45163 26.6255L1.26699 26.5486ZM4.01788 19.9418L4.20252 20.0187L4.21877 19.9797L4.21783 19.9374L4.01788 19.9418ZM22.5066 5.62334L22.5066 5.82334L22.5067 5.82334L22.5066 5.62334ZM8.64585 20.0158L8.44599 20.0233L8.44599 20.0234L8.64585 20.0158ZM8.38 21.4953L8.19554 21.418L8.19539 21.4184L8.38 21.4953ZM6.07527 27.0271L5.89065 26.9502L5.79676 27.1756L6.0362 27.2232L6.07527 27.0271ZM7.23573 27.2583L7.27499 27.0622L7.2748 27.0621L7.23573 27.2583ZM9.99586 30.2288L9.7974 30.2535L9.79741 30.2536L9.99586 30.2288ZM10.4235 33.65L10.622 33.6252L10.622 33.6252L10.4235 33.65ZM12.719 35.6751L12.719 35.4751L12.7189 35.4751L12.719 35.6751ZM20.195 39.1426H20.395H20.195ZM20.195 42.6101H19.995V42.8101H20.195V42.6101ZM29.4416 42.6101V42.8101H29.6416V42.6101H29.4416ZM30.8494 30.5755L30.7292 30.4157L30.7291 30.4158L30.8494 30.5755ZM18 22.3334L17.8272 22.2326C17.7912 22.2945 17.7909 22.3709 17.8266 22.433C17.8622 22.4951 17.9284 22.5334 18 22.5334V22.3334ZM22.6667 14.3334H22.8667C22.8667 14.243 22.8061 14.1639 22.7189 14.1403C22.6316 14.1167 22.5394 14.1546 22.4939 14.2326L22.6667 14.3334ZM22.6667 19.6667H22.4667C22.4667 19.7772 22.5562 19.8667 22.6667 19.8667V19.6667ZM26 19.6667L26.1728 19.7675C26.2088 19.7056 26.2091 19.6292 26.1734 19.5671C26.1378 19.505 26.0716 19.4667 26 19.4667V19.6667ZM21.3333 27.6667H21.1333C21.1333 27.7571 21.1939 27.8362 21.2811 27.8598C21.3684 27.8834 21.4606 27.8455 21.5061 27.7675L21.3333 27.6667ZM21.3333 22.3334H21.5333C21.5333 22.2229 21.4438 22.1334 21.3333 22.1334V22.3334ZM4.21326 19.4934C4.21326 16.3996 4.99787 13.3565 6.49371 10.6484L6.14357 10.455C4.61502 13.2223 3.81326 16.332 3.81326 19.4934L4.21326 19.4934ZM6.49371 10.6484C7.98955 7.94033 10.1477 5.65586 12.7665 4.00864L12.5535 3.67005C9.87751 5.35329 7.67212 7.68771 6.14357 10.455L6.49371 10.6484ZM12.7665 4.00864C15.3852 2.36141 18.3789 1.40524 21.4677 1.22953L21.445 0.830176C18.2887 1.00972 15.2295 1.98681 12.5535 3.67005L12.7665 4.00864ZM21.4677 1.22953C24.5564 1.05383 27.6392 1.66433 30.4279 3.00395L30.6011 2.6434C27.7515 1.27448 24.6012 0.650629 21.445 0.830176L21.4677 1.22953ZM30.4279 3.00395C33.2165 4.34358 35.6199 6.36855 37.4132 8.88951L37.7391 8.65765C35.9066 6.08157 33.4507 4.01231 30.6011 2.6434L30.4279 3.00395ZM37.4132 8.88951C39.2065 11.4105 40.3311 14.345 40.682 17.4188L41.0794 17.3734C40.7209 14.2325 39.5716 11.2337 37.7391 8.65765L37.4132 8.88951ZM40.682 17.4188C41.0328 20.4926 40.5984 23.6051 39.4193 26.4653L39.7891 26.6178C40.994 23.695 41.4379 20.5144 41.0794 17.3734L40.682 17.4188ZM39.4193 26.4653C38.2402 29.3256 36.355 31.84 33.94 33.7736L34.19 34.0859C36.6578 32.11 38.5843 29.5406 39.7891 26.6178L39.4193 26.4653ZM33.865 33.9298V43.7659H34.265V33.9298H33.865ZM33.865 43.7659C33.865 44.6325 33.5207 45.4636 32.9079 46.0764L33.1908 46.3592C33.8786 45.6714 34.265 44.7386 34.265 43.7659H33.865ZM32.9079 46.0764C32.2952 46.6892 31.4641 47.0334 30.5975 47.0334V47.4334C31.5702 47.4334 32.503 47.047 33.1908 46.3592L32.9079 46.0764ZM30.5975 47.0334H19.0391V47.4334H30.5975V47.0334ZM19.0391 47.0334C18.1725 47.0334 17.3414 46.6892 16.7286 46.0764L16.4458 46.3592C17.1336 47.047 18.0664 47.4334 19.0391 47.4334V47.0334ZM16.7286 46.0764C16.1159 45.4636 15.7716 44.6325 15.7716 43.7659H15.3716C15.3716 44.7386 15.758 45.6714 16.4458 46.3592L16.7286 46.0764ZM15.7716 43.7659V40.2984H15.3716V43.7659H15.7716ZM15.5716 40.0984H12.719V40.4984H15.5716V40.0984ZM12.719 40.0984C11.0773 40.0985 9.49217 39.499 8.26145 38.4125L7.99673 38.7124C9.30055 39.8634 10.9799 40.4985 12.719 40.4984L12.719 40.0984ZM8.26145 38.4125C7.03072 37.3261 6.23919 35.8275 6.03562 34.1985L5.63871 34.2481C5.85437 35.9739 6.69291 37.5614 7.99673 38.7124L8.26145 38.4125ZM6.03563 34.1986L5.712 31.6026L5.31507 31.6521L5.6387 34.2481L6.03563 34.1986ZM5.55265 31.4312L3.82584 31.0868L3.74759 31.479L5.47441 31.8235L5.55265 31.4312ZM3.82598 31.0868C3.35196 30.9919 2.90491 30.793 2.51706 30.5044L2.27829 30.8253C2.71362 31.1492 3.2154 31.3725 3.74745 31.479L3.82598 31.0868ZM2.51706 30.5044C2.1292 30.2158 1.81022 29.8448 1.58309 29.418L1.22998 29.606C1.48492 30.085 1.84296 30.5014 2.27829 30.8253L2.51706 30.5044ZM1.58309 29.418C1.35596 28.9913 1.22636 28.5195 1.20362 28.0366L0.80406 28.0554C0.829582 28.5974 0.975053 29.127 1.22998 29.606L1.58309 29.418ZM1.20362 28.0366C1.18088 27.5537 1.26557 27.0717 1.45159 26.6255L1.08239 26.4716C0.873599 26.9725 0.778537 27.5134 0.80406 28.0554L1.20362 28.0366ZM1.45163 26.6255L4.20252 20.0187L3.83325 19.865L1.08236 26.4717L1.45163 26.6255ZM4.21783 19.9374C4.21455 19.7895 4.21302 19.6416 4.21326 19.4937L3.81326 19.493C3.81302 19.6441 3.81458 19.7952 3.81793 19.9463L4.21783 19.9374ZM22.5066 5.42334C20.6143 5.42326 18.7413 5.80491 16.9999 6.54547L17.1564 6.91357C18.8484 6.19407 20.668 5.82326 22.5066 5.82334L22.5066 5.42334ZM16.9999 6.54547C15.2584 7.28603 13.6843 8.37026 12.3716 9.73331L12.6597 10.0108C13.9351 8.68649 15.4645 7.63307 17.1564 6.91357L16.9999 6.54547ZM12.3716 9.73331C11.0589 11.0964 10.0347 12.7102 9.36014 14.4783L9.73387 14.6208C10.3892 12.903 11.3843 11.3351 12.6597 10.0108L12.3716 9.73331ZM9.36014 14.4783C8.68563 16.2463 8.37471 18.1323 8.44599 20.0233L8.8457 20.0083C8.77645 18.171 9.07853 16.3387 9.73387 14.6208L9.36014 14.4783ZM8.44599 20.0234C8.46345 20.4816 8.38703 20.961 8.19554 21.418L8.56446 21.5726C8.77984 21.0586 8.86523 20.5209 8.8457 20.0082L8.44599 20.0234ZM8.19539 21.4184L5.89065 26.9502L6.25989 27.104L8.56462 21.5722L8.19539 21.4184ZM6.0362 27.2232L7.19665 27.4544L7.2748 27.0621L6.11434 26.831L6.0362 27.2232ZM7.19647 27.4544C7.8689 27.589 8.48194 27.9318 8.94874 28.4341L9.24177 28.1619C8.71782 27.598 8.02974 27.2133 7.27499 27.0622L7.19647 27.4544ZM8.94874 28.4341C9.41554 28.9365 9.71245 29.573 9.7974 30.2535L10.1943 30.204C10.099 29.4402 9.76572 28.7258 9.24177 28.1619L8.94874 28.4341ZM9.79741 30.2536L10.2251 33.6748L10.622 33.6252L10.1943 30.204L9.79741 30.2536ZM10.2251 33.6748C10.301 34.2826 10.5964 34.8417 11.0558 35.2469L11.3204 34.9469C10.9342 34.6063 10.6858 34.1362 10.622 33.6252L10.2251 33.6748ZM11.0558 35.2469C11.5151 35.6521 12.1066 35.8755 12.7192 35.8751L12.7189 35.4751C12.2039 35.4754 11.7066 35.2876 11.3204 34.9469L11.0558 35.2469ZM12.719 35.8751H16.7274V35.4751H12.719V35.8751ZM16.7274 35.8751C17.594 35.8751 18.4251 36.2193 19.0379 36.8321L19.3208 36.5493C18.633 35.8615 17.7001 35.4751 16.7274 35.4751V35.8751ZM19.0379 36.8321C19.6507 37.4449 19.995 38.276 19.995 39.1426H20.395C20.395 38.1699 20.0086 37.237 19.3208 36.5493L19.0379 36.8321ZM19.995 39.1426V42.6101H20.395V39.1426H19.995ZM20.195 42.8101H29.4416V42.4101H20.195V42.8101ZM29.6416 42.6101V33.3773H29.2416V42.6101H29.6416ZM29.6416 33.3773C29.6416 32.2953 30.1728 31.3357 30.9698 30.7353L30.7291 30.4158C29.8386 31.0867 29.2416 32.1614 29.2416 33.3773H29.6416ZM30.9697 30.7353C33.3278 28.9606 35.0681 26.4894 35.9444 23.6713L35.5624 23.5525C34.711 26.2905 33.0202 28.6915 30.7292 30.4157L30.9697 30.7353ZM35.9444 23.6713C36.8207 20.8531 36.7887 17.8307 35.8529 15.0318L35.4735 15.1586C36.3828 17.878 36.4139 20.8145 35.5624 23.5525L35.9444 23.6713ZM35.8529 15.0318C34.917 12.2328 33.1248 9.79903 30.7297 8.0747L30.496 8.39933C32.823 10.0746 34.5643 12.4393 35.4735 15.1586L35.8529 15.0318ZM30.7297 8.0747C28.3345 6.35037 25.4578 5.42284 22.5066 5.42334L22.5067 5.82334C25.374 5.82286 28.1689 6.72402 30.496 8.39933L30.7297 8.0747ZM18.1728 22.4342L22.8394 14.4342L22.4939 14.2326L17.8272 22.2326L18.1728 22.4342ZM22.4667 14.3334V19.6667H22.8667V14.3334H22.4667ZM22.6667 19.8667H26V19.4667H22.6667V19.8667ZM25.8272 19.5659L21.1606 27.5659L21.5061 27.7675L26.1728 19.7675L25.8272 19.5659ZM21.5333 27.6667V22.3334H21.1333V27.6667H21.5333ZM21.3333 22.1334H18V22.5334H21.3333V22.1334Z" fill="white"></path> </svg> 