<svg width="119" height="119" viewBox="0 0 119 119" fill="none" xmlns="http://www.w3.org/2000/svg">
<path d="M59.5 0C75.2804 0 90.4144 6.26873 101.573 17.4271C112.731 28.5856 119 43.7196 119 59.5C119 75.2804 112.731 90.4144 101.573 101.573C90.4144 112.731 75.2804 119 59.5 119C43.7196 119 28.5856 112.731 17.4271 101.573C6.26873 90.4144 0 75.2804 0 59.5C0 43.7196 6.26873 28.5856 17.4271 17.4271C28.5856 6.26873 43.7196 0 59.5 0ZM52.088 71.2385L38.8705 58.0125C38.3967 57.5387 37.8341 57.1628 37.215 56.9063C36.5959 56.6499 35.9324 56.5179 35.2622 56.5179C34.5921 56.5179 33.9286 56.6499 33.3095 56.9063C32.6904 57.1628 32.1278 57.5387 31.654 58.0125C30.697 58.9695 30.1594 60.2674 30.1594 61.6208C30.1594 62.9741 30.697 64.272 31.654 65.229L48.484 82.059C48.9565 82.5352 49.5186 82.9132 50.1379 83.1711C50.7572 83.4291 51.4214 83.5619 52.0922 83.5619C52.7631 83.5619 53.4273 83.4291 54.0466 83.1711C54.6659 82.9132 55.228 82.5352 55.7005 82.059L90.5505 47.2005C91.0307 46.7286 91.4127 46.1663 91.6745 45.5461C91.9362 44.9259 92.0726 44.2599 92.0758 43.5867C92.0789 42.9135 91.9487 42.2463 91.6927 41.6236C91.4367 41.001 91.0599 40.4352 90.5842 39.9589C90.1084 39.4825 89.5431 39.1051 88.9207 38.8484C88.2983 38.5916 87.6313 38.4607 86.9581 38.463C86.2849 38.4653 85.6188 38.6009 84.9982 38.862C84.3777 39.1231 83.8149 39.5044 83.3425 39.984L52.088 71.2385Z" fill="#24B4B0"/>
</svg>
