<svg width="79" height="706" viewBox="0 0 79 706" fill="none" xmlns="http://www.w3.org/2000/svg">
<line x1="40.4999" y1="79" x2="40.4999" y2="333" stroke="black" stroke-width="3"/>
<line x1="40.4999" y1="373" x2="40.4999" y2="627" stroke="black" stroke-width="3"/>
<circle cx="39.5" cy="39.5" r="39.5" fill="#E72485"/>
<path d="M38.296 56C37.976 56 37.688 55.888 37.432 55.664C37.208 55.44 37.096 55.152 37.096 54.8L37.096 30.944L30.184 36.272C29.896 36.496 29.592 36.576 29.272 36.512C28.984 36.448 28.728 36.272 28.504 35.984L26.104 32.864C25.912 32.576 25.832 32.272 25.864 31.952C25.928 31.632 26.104 31.376 26.392 31.184L37.336 22.736C37.528 22.608 37.704 22.528 37.864 22.496C38.056 22.432 38.264 22.4 38.488 22.4L43.576 22.4C43.896 22.4 44.168 22.512 44.392 22.736C44.616 22.96 44.728 23.248 44.728 23.6L44.728 54.8C44.728 55.152 44.616 55.44 44.392 55.664C44.168 55.888 43.896 56 43.576 56L38.296 56Z" fill="white"/>
<circle cx="39.4998" cy="372.5" r="39.5" fill="#E72485"/>
<path d="M27.264 389C26.912 389 26.624 388.888 26.4 388.664C26.176 388.44 26.064 388.152 26.064 387.8L26.064 384.92C26.064 384.664 26.128 384.328 26.256 383.912C26.416 383.464 26.752 383.032 27.264 382.616L33.6 376.328C35.936 374.536 37.824 373.016 39.264 371.768C40.736 370.52 41.824 369.384 42.528 368.36C43.232 367.336 43.584 366.344 43.584 365.384C43.584 364.136 43.232 363.112 42.528 362.312C41.856 361.48 40.752 361.064 39.216 361.064C38.192 361.064 37.328 361.288 36.624 361.736C35.952 362.152 35.424 362.712 35.04 363.416C34.656 364.12 34.4 364.888 34.272 365.72C34.176 366.136 33.968 366.424 33.648 366.584C33.36 366.744 33.056 366.824 32.736 366.824L27.648 366.824C27.328 366.824 27.072 366.728 26.88 366.536C26.688 366.312 26.592 366.072 26.592 365.816C26.624 364.344 26.928 362.952 27.504 361.64C28.112 360.328 28.96 359.16 30.048 358.136C31.136 357.112 32.448 356.312 33.984 355.736C35.52 355.128 37.264 354.824 39.216 354.824C41.904 354.824 44.16 355.272 45.984 356.168C47.808 357.032 49.184 358.232 50.112 359.768C51.04 361.304 51.504 363.08 51.504 365.096C51.504 366.632 51.184 368.056 50.544 369.368C49.936 370.68 49.04 371.944 47.856 373.16C46.672 374.344 45.264 375.576 43.632 376.856L37.968 382.52L51.024 382.52C51.376 382.52 51.664 382.632 51.888 382.856C52.112 383.08 52.224 383.368 52.224 383.72L52.224 387.8C52.224 388.152 52.112 388.44 51.888 388.664C51.664 388.888 51.376 389 51.024 389L27.264 389Z" fill="white"/>
<circle cx="39.4998" cy="666.5" r="39.5" fill="#E72485"/>
<path d="M39.264 683.48C36.896 683.48 34.864 683.192 33.168 682.616C31.472 682.04 30.08 681.304 28.992 680.408C27.904 679.512 27.088 678.536 26.544 677.48C26 676.392 25.712 675.352 25.68 674.36C25.68 674.072 25.776 673.832 25.968 673.64C26.16 673.448 26.4 673.352 26.688 673.352L31.968 673.352C32.32 673.352 32.608 673.432 32.832 673.592C33.056 673.72 33.264 673.96 33.456 674.312C33.712 675.048 34.128 675.64 34.704 676.088C35.28 676.536 35.952 676.856 36.72 677.048C37.52 677.208 38.368 677.288 39.264 677.288C41.056 677.288 42.464 676.872 43.488 676.04C44.512 675.208 45.024 674.04 45.024 672.536C45.024 671 44.544 669.896 43.584 669.224C42.624 668.552 41.264 668.216 39.504 668.216L34.368 668.216C34.048 668.216 33.776 668.104 33.552 667.88C33.328 667.656 33.216 667.384 33.216 667.064L33.216 664.712C33.216 664.328 33.28 664.008 33.408 663.752C33.568 663.496 33.728 663.304 33.888 663.176L42.144 655.592L28.608 655.592C28.256 655.592 27.968 655.48 27.744 655.256C27.52 655.032 27.408 654.76 27.408 654.44L27.408 650.6C27.408 650.248 27.52 649.96 27.744 649.736C27.968 649.512 28.256 649.4 28.608 649.4L49.92 649.4C50.272 649.4 50.56 649.512 50.784 649.736C51.008 649.96 51.12 650.248 51.12 650.6L51.12 654.056C51.12 654.408 51.056 654.712 50.928 654.968C50.8 655.192 50.64 655.368 50.448 655.496L42.624 663.224L43.104 663.272C44.992 663.464 46.672 663.928 48.144 664.664C49.616 665.4 50.768 666.456 51.6 667.832C52.464 669.176 52.896 670.888 52.896 672.968C52.896 675.144 52.304 677.016 51.12 678.584C49.936 680.152 48.32 681.368 46.272 682.232C44.224 683.064 41.888 683.48 39.264 683.48Z" fill="white"/>
</svg>
