<?xml version="1.0" encoding="UTF-8"?> <svg xmlns="http://www.w3.org/2000/svg" width="50" height="50" viewBox="0 0 50 50" fill="none"> <path d="M29.7403 7.40781C29.7933 7.20951 29.8849 7.02361 30.0098 6.86072C30.1347 6.69783 30.2905 6.56115 30.4682 6.45849C30.646 6.35583 30.8422 6.2892 31.0457 6.26241C31.2493 6.23561 31.4561 6.24918 31.6543 6.30234C34.5509 7.0581 37.1937 8.57235 39.3105 10.6891C41.4273 12.8059 42.9415 15.4487 43.6973 18.3453C43.7504 18.5436 43.764 18.7504 43.7372 18.9539C43.7104 19.1574 43.6438 19.3536 43.5411 19.5314C43.4385 19.7091 43.3018 19.8649 43.1389 19.9898C42.976 20.1147 42.7901 20.2063 42.5918 20.2594C42.4598 20.294 42.324 20.3118 42.1875 20.3121C41.8432 20.3121 41.5085 20.1984 41.2355 19.9886C40.9625 19.7788 40.7664 19.4847 40.6778 19.1519C40.0614 16.7873 38.8255 14.6299 37.0976 12.902C35.3697 11.1741 33.2123 9.93825 30.8477 9.32187C30.6492 9.26904 30.4631 9.1776 30.3 9.05278C30.1369 8.92796 30 8.77221 29.8971 8.59443C29.7943 8.41666 29.7275 8.22035 29.7006 8.01674C29.6736 7.81313 29.6871 7.6062 29.7403 7.40781ZM29.2852 15.5719C31.9785 16.2906 33.709 18.0211 34.4278 20.7144C34.5164 21.0472 34.7125 21.3413 34.9855 21.5511C35.2585 21.7609 35.5932 21.8746 35.9375 21.8746C36.074 21.8743 36.2098 21.8565 36.3418 21.8219C36.5401 21.7688 36.726 21.6772 36.8889 21.5523C37.0518 21.4274 37.1885 21.2716 37.2911 21.0939C37.3938 20.9161 37.4604 20.7199 37.4872 20.5164C37.514 20.3129 37.5004 20.1061 37.4473 19.9078C36.4473 16.1656 33.834 13.5523 30.0918 12.5523C29.8936 12.4994 29.6868 12.486 29.4834 12.5129C29.2799 12.5399 29.0838 12.6066 28.9061 12.7093C28.7285 12.8121 28.5728 12.9488 28.448 13.1117C28.3232 13.2746 28.2317 13.4605 28.1787 13.6588C28.1258 13.857 28.1124 14.0638 28.1393 14.2672C28.1662 14.4707 28.233 14.6668 28.3357 14.8445C28.4385 15.0221 28.5752 15.1778 28.7381 15.3026C28.901 15.4274 29.0869 15.5189 29.2852 15.5719ZM45.2891 34.1949C44.9408 36.8415 43.6411 39.2707 41.6326 41.029C39.6242 42.7873 37.0444 43.7544 34.375 43.7496C18.8672 43.7496 6.25002 31.1324 6.25002 15.6246C6.24523 12.9553 7.2123 10.3754 8.97059 8.36698C10.7289 6.35853 13.1582 5.0588 15.8047 4.71054C16.4739 4.62883 17.1517 4.76574 17.7367 5.10085C18.3217 5.43596 18.7827 5.95129 19.0508 6.56992L23.1758 15.7789V15.8023C23.381 16.2759 23.4658 16.7929 23.4225 17.3072C23.3792 17.8215 23.2093 18.317 22.9278 18.7496C22.8926 18.8023 22.8555 18.8512 22.8164 18.9L18.75 23.7203C20.2129 26.693 23.3223 29.775 26.334 31.2418L31.0879 27.1969C31.1346 27.1576 31.1835 27.1211 31.2344 27.0875C31.6666 26.7992 32.1639 26.6233 32.6812 26.5755C33.1985 26.5278 33.7196 26.6098 34.1973 26.8141L34.2227 26.8258L43.4238 30.9488C44.0436 31.216 44.5602 31.6765 44.8964 32.2616C45.2326 32.8468 45.3704 33.525 45.2891 34.1949ZM42.1875 33.8043H42.166L32.9863 29.693L28.2305 33.7379C28.1844 33.777 28.1361 33.8135 28.086 33.8473C27.6363 34.1473 27.1164 34.3255 26.5773 34.3645C26.0381 34.4036 25.498 34.302 25.0098 34.0699C21.3516 32.3023 17.7051 28.6832 15.9356 25.0641C15.7012 24.5794 15.5961 24.0424 15.6303 23.5052C15.6645 22.968 15.837 22.4487 16.1309 21.9977C16.164 21.9447 16.2012 21.8944 16.2422 21.8473L20.3125 17.0211L16.211 7.8414C16.2102 7.83361 16.2102 7.82576 16.211 7.81796C14.3169 8.06503 12.5779 8.99406 11.3196 10.4311C10.0612 11.8681 9.3699 13.7145 9.37502 15.6246C9.38226 22.2528 12.0185 28.6074 16.7053 33.2943C21.3922 37.9811 27.7468 40.6174 34.375 40.6246C36.2839 40.6312 38.1299 39.9422 39.5677 38.6866C41.0056 37.431 41.9369 35.6947 42.1875 33.8023V33.8043Z" fill="white"></path> </svg> 